<svg width="1590" height="799" viewBox="0 0 1590 799" fill="none" xmlns="http://www.w3.org/2000/svg">
<path d="M1381.12 420.043C1381.12 423.218 1378.14 425.793 1374.47 425.793C1370.79 425.793 1367.81 423.218 1367.81 420.043C1367.81 416.866 1370.79 414.291 1374.47 414.291C1378.14 414.291 1381.12 416.866 1381.12 420.043Z" fill="white"/>
<path d="M1446.52 84.4059C1446.52 87.5825 1443.54 90.156 1439.86 90.156C1436.18 90.156 1433.2 87.5825 1433.2 84.4059C1433.2 81.2309 1436.18 78.6557 1439.86 78.6557C1443.54 78.6557 1446.52 81.2309 1446.52 84.4059Z" fill="white"/>
<path d="M1458.32 264.291C1458.32 265.88 1456.83 267.167 1454.99 267.167C1453.16 267.167 1451.66 265.88 1451.66 264.291C1451.66 262.704 1453.16 261.415 1454.99 261.415C1456.83 261.415 1458.32 262.704 1458.32 264.291Z" fill="white"/>
<path d="M1400.58 39.8759C1400.58 41.4651 1399.09 42.7518 1397.25 42.7518C1395.41 42.7518 1393.92 41.4651 1393.92 39.8759C1393.92 38.2884 1395.41 37 1397.25 37C1399.09 37 1400.58 38.2884 1400.58 39.8759Z" fill="white"/>
<path d="M1422.38 519.802C1422.38 521.389 1420.89 522.676 1419.05 522.676C1417.21 522.676 1415.72 521.389 1415.72 519.802C1415.72 518.214 1417.21 516.926 1419.05 516.926C1420.89 516.926 1422.38 518.214 1422.38 519.802Z" fill="white"/>
<path d="M1376.7 318.488C1394.23 318.488 1400.58 313.008 1400.58 297.869C1400.58 313.008 1406.92 318.488 1424.45 318.488C1406.92 318.488 1400.58 323.97 1400.58 339.108C1400.58 323.97 1394.23 318.488 1376.7 318.488Z" fill="white"/>
<path d="M1495.16 386.063C1503.92 386.063 1507.09 383.322 1507.09 375.752C1507.09 383.322 1510.27 386.063 1519.03 386.063C1510.27 386.063 1507.09 388.802 1507.09 396.372C1507.09 388.802 1503.92 386.063 1495.16 386.063Z" fill="white"/>
<path d="M1221.45 72.9055C1230.22 72.9055 1233.39 70.1646 1233.39 62.5963C1233.39 70.1646 1236.56 72.9055 1245.33 72.9055C1236.56 72.9055 1233.39 75.6447 1233.39 83.2148C1233.39 75.6447 1230.22 72.9055 1221.45 72.9055Z" fill="white"/>
<path d="M1529.63 169.506C1538.39 169.506 1541.57 166.766 1541.57 159.195C1541.57 166.766 1544.74 169.506 1553.51 169.506C1544.74 169.506 1541.57 172.246 1541.57 179.816C1541.57 172.246 1538.39 169.506 1529.63 169.506Z" fill="white"/>
<path d="M1327.08 142.9C1335.85 142.9 1339.02 140.159 1339.02 132.591C1339.02 140.159 1342.19 142.9 1350.95 142.9C1342.19 142.9 1339.02 145.641 1339.02 153.209C1339.02 145.641 1335.85 142.9 1327.08 142.9Z" fill="white"/>
<path d="M1493.69 232.316C1496.94 232.664 1500.12 233.22 1503.24 233.963L1503.76 232.317C1500.56 231.55 1497.28 230.979 1493.93 230.619L1493.69 232.316H1493.69ZM1512.42 236.771C1515.4 237.883 1518.3 239.17 1521.11 240.61L1522.12 239.142C1519.24 237.666 1516.27 236.345 1513.21 235.202L1512.42 236.771ZM1529.19 245.347C1531.77 247.053 1534.25 248.891 1536.62 250.843L1537.98 249.605C1535.56 247.613 1533.03 245.735 1530.39 243.99L1529.19 245.347ZM1543.35 256.981C1545.47 259.118 1547.48 261.35 1549.36 263.659L1550.98 262.676C1549.06 260.323 1547.02 258.049 1544.85 255.868L1543.35 256.981ZM1554.63 270.798C1556.26 273.254 1557.76 275.769 1559.12 278.326L1560.92 277.615C1559.54 275.01 1558.01 272.447 1556.35 269.947L1554.63 270.798ZM1562.9 286.16C1564.08 288.792 1565.19 291.463 1566.23 294.163L1568.1 293.625C1567.05 290.897 1565.93 288.202 1564.75 285.545L1562.9 286.16ZM1569.1 302.295C1569.98 305.022 1570.79 307.772 1571.51 310.538L1573.44 310.159C1572.71 307.365 1571.89 304.588 1571 301.835L1569.1 302.295ZM1573.46 318.871C1574.03 321.666 1574.52 324.47 1574.92 327.278L1576.89 327.068C1576.48 324.231 1575.99 321.398 1575.41 318.575L1573.46 318.871ZM1575.87 335.735C1576.1 338.573 1576.24 341.405 1576.29 344.223L1578.26 344.2C1578.22 341.348 1578.08 338.484 1577.85 335.617L1575.87 335.735ZM1576.12 352.719C1575.97 355.564 1575.71 358.385 1575.34 361.181L1577.31 361.372C1577.68 358.539 1577.94 355.68 1578.1 352.799L1576.12 352.719ZM1573.9 369.569C1573.3 372.368 1572.59 375.127 1571.75 377.838L1573.66 378.279C1574.51 375.523 1575.24 372.72 1575.85 369.882L1573.9 369.569ZM1568.83 385.926C1567.72 388.595 1566.47 391.206 1565.09 393.751L1566.89 394.475C1568.29 391.881 1569.56 389.223 1570.69 386.505L1568.83 385.926ZM1560.52 401.222C1558.85 403.642 1557.04 405.984 1555.08 408.24L1556.67 409.263C1558.67 406.958 1560.51 404.566 1562.22 402.097L1560.52 401.222ZM1548.8 414.708C1546.59 416.743 1544.24 418.688 1541.73 420.533L1543.01 421.834C1545.58 419.947 1547.99 417.958 1550.24 415.877L1548.8 414.708ZM1533.96 425.646C1531.3 427.199 1528.52 428.655 1525.58 430.009L1526.52 431.516C1529.51 430.135 1532.36 428.647 1535.07 427.061L1533.96 425.646ZM1516.74 433.616C1513.79 434.668 1510.72 435.629 1507.53 436.49L1508.12 438.122C1511.37 437.245 1514.49 436.268 1517.49 435.195L1516.74 433.616ZM1498.05 438.681C1494.86 439.311 1491.64 439.858 1488.4 440.34L1488.74 442.025C1492.01 441.538 1495.26 440.984 1498.49 440.347L1498.05 438.681ZM1478.66 441.61C1475.41 441.979 1472.14 442.3 1468.87 442.591L1469.07 444.291C1472.36 443.999 1475.64 443.676 1478.92 443.303L1478.66 441.61ZM1459.03 443.389C1455.75 443.635 1452.46 443.867 1449.17 444.105L1449.34 445.807C1452.62 445.571 1455.91 445.337 1459.2 445.091L1459.03 443.389ZM1439.31 444.841C1436.02 445.102 1432.73 445.384 1429.44 445.704L1429.66 447.401C1432.93 447.085 1436.21 446.804 1439.49 446.543L1439.31 444.841ZM1419.6 446.794C1416.32 447.208 1413.05 447.678 1409.8 448.219L1410.17 449.897C1413.39 449.361 1416.63 448.896 1419.88 448.484L1419.6 446.794ZM1400.09 450.082C1396.88 450.788 1393.69 451.581 1390.53 452.483L1391.15 454.106C1394.26 453.218 1397.41 452.433 1400.57 451.74L1400.09 450.082ZM1381.2 455.552C1378.18 456.714 1375.2 458.042 1372.32 459.53L1373.33 460.998C1376.14 459.545 1379.05 458.248 1382 457.114L1381.2 455.552ZM1364.06 464.438C1361.44 466.235 1358.95 468.189 1356.67 470.294L1358.11 471.461C1360.33 469.422 1362.73 467.526 1365.29 465.777L1364.06 464.438ZM1350.45 477.109C1348.61 479.53 1347.04 482.102 1345.78 484.815L1347.62 485.449C1348.82 482.847 1350.33 480.378 1352.1 478.043L1350.45 477.109ZM1343.19 493.262C1343 494.609 1342.91 495.938 1342.91 497.256C1342.91 498.855 1343.04 500.434 1343.28 501.997L1345.24 501.775C1345.02 500.28 1344.89 498.775 1344.89 497.256C1344.89 496.005 1344.97 494.745 1345.16 493.472L1343.19 493.262ZM1345.48 510.46C1346.43 513.19 1347.58 515.89 1348.76 518.578L1350.61 517.971C1349.44 515.295 1348.31 512.633 1347.37 509.962L1345.48 510.46ZM1352.23 526.56C1353.34 529.238 1354.34 531.924 1355.08 534.641L1357.01 534.246C1356.24 531.444 1355.22 528.698 1354.1 525.988L1352.23 526.56ZM1356.51 542.936C1356.58 543.894 1356.61 544.846 1356.61 545.793C1356.61 547.659 1356.48 549.499 1356.24 551.312L1358.2 551.51C1358.46 549.632 1358.59 547.725 1358.59 545.793C1358.59 544.812 1358.55 543.826 1358.48 542.833L1356.51 542.936ZM1354.27 559.521C1353.34 562.206 1352.16 564.819 1350.75 567.348L1352.53 568.089C1353.99 565.483 1355.21 562.785 1356.17 560.008L1354.27 559.521ZM1345.89 574.641C1344.09 576.962 1342.09 579.191 1339.94 581.321L1341.43 582.445C1343.64 580.265 1345.68 577.978 1347.54 575.594L1345.89 574.641ZM1333.09 587.351C1330.69 589.246 1328.15 591.037 1325.53 592.713L1326.7 594.087C1329.38 592.378 1331.97 590.55 1334.43 588.612L1333.09 587.351ZM1317.37 597.395C1316.25 597.973 1315.12 598.53 1313.98 599.067C1312.25 599.882 1310.5 600.663 1308.73 601.413L1309.6 602.946C1311.4 602.185 1313.17 601.394 1314.93 600.567C1316.09 600.02 1317.24 599.451 1318.38 598.863L1317.37 597.395ZM1299.78 604.919C1296.76 606.015 1293.7 607.043 1290.61 608.024L1291.3 609.629C1294.4 608.64 1297.49 607.602 1300.54 606.495L1299.78 604.919ZM1281.3 610.837C1278.19 611.738 1275.05 612.609 1271.91 613.472L1272.51 615.101C1275.66 614.238 1278.8 613.363 1281.93 612.459L1281.3 610.837ZM1262.47 616.042C1259.33 616.902 1256.18 617.771 1253.05 618.667L1253.67 620.29C1256.79 619.397 1259.93 618.53 1263.07 617.672L1262.47 616.042ZM1243.67 621.462C1240.55 622.436 1237.46 623.457 1234.39 624.543L1235.15 626.124C1238.18 625.048 1241.25 624.036 1244.34 623.069L1243.67 621.462ZM1225.3 628.019C1222.31 629.251 1219.35 630.56 1216.45 631.939L1217.4 633.436C1220.27 632.072 1223.19 630.781 1226.15 629.561L1225.3 628.019ZM1207.87 636.29C1205.06 637.811 1202.3 639.4 1199.59 641.056L1200.73 642.45C1203.41 640.813 1206.14 639.241 1208.92 637.739L1207.87 636.29ZM1191.64 646.218C1189.05 648.004 1186.51 649.853 1184.04 651.763L1185.36 653.036C1187.8 651.148 1190.31 649.32 1192.87 647.554L1191.64 646.218ZM1176.82 657.672C1174.48 659.701 1172.2 661.787 1170 663.93L1171.48 665.065C1173.66 662.947 1175.9 660.883 1178.22 658.879L1176.82 657.672Z" fill="#606EC5"/>
<path d="M1590 519.248C1590 521.169 1589.74 523.081 1589.33 524.967C1586.41 538.221 1576.89 550.418 1567.88 561.14C1562.89 567.071 1557.58 572.794 1552.07 578.368C1549.76 580.712 1547.34 583.986 1544.47 585.825C1541.35 587.83 1536.56 588.346 1532.79 588.737C1526.52 589.385 1519.82 589.583 1513.81 587.643C1506.96 585.432 1501.71 577.862 1497.16 573.057C1491.64 567.22 1486.34 561.211 1481.48 554.949C1473.51 544.672 1464.37 532.079 1464.37 519.248C1464.37 489.289 1492.49 465 1527.18 465C1561.88 465 1590 489.289 1590 519.248" fill="#88BBB8"/>
<path d="M1546.78 510.055C1546.78 545.685 1527.22 600.678 1527.22 600.678C1527.22 600.678 1507.65 545.685 1507.65 510.055C1507.65 474.428 1516.41 465 1527.22 465C1538.02 465 1546.78 474.428 1546.78 510.055Z" fill="#FDFCE6"/>
<path d="M1485.58 510.055C1485.58 545.685 1527.07 600.678 1527.07 600.678C1527.07 600.678 1471.8 545.685 1471.8 510.055C1471.8 474.428 1506.67 465 1517.48 465C1507.77 467.44 1485.58 474.428 1485.58 510.055" fill="#FDFCE6"/>
<path d="M1568.56 510.055C1568.56 545.685 1527.07 600.678 1527.07 600.678C1527.07 600.678 1582.35 545.685 1582.35 510.055C1582.35 474.428 1547.47 465 1536.66 465C1546.38 467.44 1568.56 474.428 1568.56 510.055Z" fill="#FDFCE6"/>
<path d="M1545.2 594.843H1509.23L1502 578.067H1552.43L1545.2 594.843Z" fill="#3D4171"/>
<path d="M1538.74 626.782H1515.19L1513.39 612.155H1540.54L1538.74 626.782" fill="#DABF58"/>
<path d="M1539.64 613.578H1514.29C1512.31 613.578 1510.7 612.187 1510.7 610.473C1510.7 608.756 1512.31 607.365 1514.29 607.365H1539.64C1541.63 607.365 1543.24 608.756 1543.24 610.473C1543.24 612.187 1541.63 613.578 1539.64 613.578Z" fill="#F2D87B"/>
<path d="M1538.74 629.889H1515.19C1514.2 629.889 1513.39 629.193 1513.39 628.335C1513.39 627.478 1514.2 626.782 1515.19 626.782H1538.74C1539.73 626.782 1540.54 627.478 1540.54 628.335C1540.54 629.193 1539.73 629.889 1538.74 629.889Z" fill="#F2D87B"/>
<path d="M1509.84 594.901L1513.81 607.216L1514.28 607.102L1510.32 594.786" fill="#272425"/>
<path d="M1526.94 607.158H1527.43V594.843H1526.94V607.158Z" fill="#272425"/>
<path d="M1518.15 594.873L1520.24 607.189L1520.73 607.127L1518.64 594.812" fill="#272425"/>
<path d="M1544.02 594.786L1540.06 607.102L1540.53 607.216L1544.5 594.901" fill="#272425"/>
<path d="M1535.7 594.812L1533.61 607.127L1534.1 607.189L1536.19 594.873" fill="#272425"/>
<path d="M1335.3 537.501C1331.7 537.501 1328.51 539.034 1326.55 541.38C1325.89 534.624 1319.34 529.315 1311.34 529.315C1306.32 529.315 1301.88 531.42 1299.09 534.653C1296.42 526.097 1287.37 519.802 1276.62 519.802C1266.86 519.802 1258.5 524.998 1255.04 532.36C1252.4 530.459 1249 529.315 1245.29 529.315C1237.7 529.315 1231.43 534.091 1230.24 540.347C1228.27 538.595 1225.53 537.501 1222.48 537.501C1219.18 537.501 1216.23 538.783 1214.25 540.799C1211.72 536.551 1206.59 533.638 1200.68 533.638C1192.25 533.638 1185.41 539.543 1185.41 546.826H1346.1C1346.1 541.678 1341.26 537.501 1335.3 537.501Z" fill="white"/>
<path d="M1532.56 131.497C1529.55 131.497 1526.89 132.776 1525.25 134.732C1524.7 129.097 1519.24 124.667 1512.57 124.667C1508.38 124.667 1504.67 126.422 1502.35 129.12C1500.12 121.983 1492.57 116.73 1483.6 116.73C1475.45 116.73 1468.48 121.065 1465.59 127.208C1463.39 125.623 1460.55 124.667 1457.45 124.667C1451.13 124.667 1445.89 128.652 1444.9 133.873C1443.26 132.41 1440.97 131.497 1438.43 131.497C1435.67 131.497 1433.21 132.567 1431.56 134.25C1429.44 130.705 1425.17 128.275 1420.23 128.275C1413.2 128.275 1407.49 133.201 1407.49 139.278H1541.57C1541.57 134.98 1537.53 131.497 1532.56 131.497" fill="white"/>
<path d="M1507.21 206.407L1502.81 224.778L1512.5 215.544L1508.12 245.814L1416.85 218.686L1507.21 206.407" fill="#DBA740"/>
<path d="M1416.85 218.686L1512.5 215.544L1541.57 240.938L1416.85 218.686Z" fill="#F4D387"/>
<path d="M1507.21 206.407L1488.95 190.004L1416.85 218.686L1507.21 206.407Z" fill="#F4D387"/>
<path d="M807.024 766.17L1270.44 780.658C1278.59 780.914 1284.39 784.789 1282.71 788.853L1281.19 792.515C1279.8 795.867 1273.73 798.174 1267.02 797.895L807.024 778.873V766.17Z" fill="#559F4F"/>
<path d="M807.024 766.17C807.024 766.17 795.906 777.8 763.697 777.967C731.001 778.137 738.201 797.929 763.697 798.382C789.19 798.836 824.972 794.127 828.503 779.763C830.488 771.678 807.024 766.17 807.024 766.17Z" fill="#559F4F"/>
<path d="M763.697 753.467C763.697 753.467 782.054 737.137 898.875 731.237C1015.7 725.34 1240.42 761.18 1240.42 761.18L1268.02 780.583L807.024 766.17C807.024 766.17 789.033 755.737 763.697 753.467Z" fill="#E3DAFF"/>
<path d="M798.435 750.818C814.645 746.875 831.712 743.826 849.192 741.565C866.706 739.359 884.671 738.044 902.718 737.568C920.77 737.048 938.878 737.403 956.848 738.219C974.822 739.065 992.648 740.48 1010.37 742.074C1045.78 745.378 1080.74 749.528 1115.81 753.306C1150.9 757.074 1186.12 760.463 1221.7 762.996C1185.88 761.606 1150.23 758.966 1114.93 755.568C1097.26 753.918 1079.68 752.045 1062.09 750.25C1044.51 748.418 1026.95 746.581 1009.33 744.984C974.16 741.706 938.572 739.333 902.907 739.865C867.287 740.36 831.787 744.005 798.435 750.818Z" fill="#D9D0F8"/>
<path d="M1262.05 742.24C1262.05 742.24 1211.89 724.546 1149.46 702.656C1079.9 690.407 814.002 707.194 763.697 753.467C774.922 756.189 785.208 757.489 785.208 757.489C825.751 748.477 1087.26 718.649 1262.05 742.24Z" fill="#EFE9FF"/>
<path d="M1217.9 698.069C1217.9 698.069 1142.33 683.035 1052.71 665C974.453 670.104 835.851 687.458 763.697 753.467C777.558 755.583 785.208 757.489 785.208 757.489C785.208 757.489 893.525 689.963 1217.9 698.069" fill="white"/>
<path d="M818.132 759.109C826.401 758.174 834.688 757.234 843.012 756.38C851.394 755.727 859.771 754.971 868.194 754.396L880.881 753.744C885.113 753.54 889.342 753.263 893.594 753.198L906.339 752.883L912.719 752.74L919.099 752.734C953.16 752.546 987.123 754.243 1020.75 756.549C1054.39 758.919 1087.8 761.828 1121.23 764.614C1154.67 767.38 1188.12 770.059 1221.7 772.499C1187.88 771.202 1154.14 769.283 1120.55 766.896C1086.95 764.57 1053.49 761.786 1019.97 759.478C986.469 757.123 952.84 755.317 919.087 755.033C885.354 754.757 851.525 756.073 818.132 759.109" fill="#D9D0F8"/>
<path d="M719.974 766.169L256.561 780.657C248.412 780.913 242.61 784.789 244.291 788.852L245.806 792.515C247.194 795.867 253.266 798.173 259.979 797.894L719.974 778.872V766.169Z" fill="#559F4F"/>
<path d="M719.974 766.17C719.974 766.17 731.091 777.8 763.304 777.967C795.999 778.137 788.797 797.929 763.304 798.382C737.811 798.836 702.029 794.127 698.498 779.763C696.51 771.678 719.974 766.17 719.974 766.17" fill="#559F4F"/>
<path d="M763.304 753.467C763.304 753.467 744.944 737.137 628.123 731.237C511.304 725.34 286.58 761.18 286.58 761.18L258.978 780.583L719.974 766.17C719.974 766.17 737.965 755.737 763.304 753.467" fill="#E3DAFF"/>
<path d="M728.563 750.818C695.214 744.005 659.711 740.36 624.094 739.865C588.426 739.333 552.838 741.706 517.667 744.984C500.048 746.581 482.489 748.418 464.914 750.25C447.324 752.045 429.745 753.918 412.071 755.568C376.768 758.966 341.12 761.606 305.307 762.996C340.879 760.463 376.105 757.074 411.187 753.306C446.263 749.528 481.222 745.378 516.632 742.074C534.353 740.48 552.176 739.065 570.152 738.219C588.123 737.403 606.231 737.048 624.28 737.568C642.327 738.044 660.295 739.359 677.809 741.565C695.289 743.826 712.356 746.875 728.563 750.818Z" fill="#D9D0F8"/>
<path d="M264.955 742.24C264.955 742.24 315.117 724.546 377.538 702.656C447.097 690.407 713.391 707.194 763.697 753.467C752.472 756.189 741.793 757.489 741.793 757.489C701.247 748.477 439.74 718.649 264.955 742.24" fill="#EFE9FF"/>
<path d="M309.096 698.069C309.096 698.069 384.674 683.035 474.296 665C552.547 670.104 691.15 687.458 763.304 753.467C749.44 755.583 741.793 757.489 741.793 757.489C741.793 757.489 633.476 689.963 309.096 698.069" fill="white"/>
<path d="M708.868 759.109C675.472 756.073 641.647 754.757 607.911 755.033C574.16 755.317 540.529 757.123 507.029 759.478C473.508 761.786 440.051 764.57 406.446 766.896C372.859 769.283 339.12 771.202 305.307 772.499C338.882 770.059 372.333 767.38 405.769 764.614C439.197 761.828 472.607 758.919 506.244 756.549C539.875 754.243 573.841 752.546 607.902 752.734L614.282 752.74L620.659 752.883L633.407 753.198C637.659 753.263 641.885 753.54 646.117 753.744L658.804 754.396C667.23 754.971 675.603 755.727 683.989 756.38C692.313 757.234 700.596 758.174 708.868 759.109Z" fill="#D9D0F8"/>
<path d="M121.546 241.437C118.622 241.437 116.038 242.836 114.449 244.975C113.913 238.812 108.603 233.97 102.119 233.97C98.0464 233.97 94.4431 235.89 92.1865 238.84C90.0164 231.037 82.6828 225.294 73.964 225.294C66.0453 225.294 59.2689 230.032 56.4664 236.748C54.3211 235.014 51.5643 233.97 48.5545 233.97C42.4069 233.97 37.3208 238.326 36.3518 244.033C34.76 242.434 32.5328 241.437 30.0631 241.437C27.3867 241.437 24.9934 242.608 23.3875 244.446C21.3314 240.57 17.1797 237.915 12.3828 237.915C5.54357 237.915 0 243.299 0 249.942H130.301C130.301 245.246 126.381 241.437 121.546 241.437" fill="white"/>
<path d="M240.203 410.875C243.745 410.875 246.872 412.567 248.797 415.158C249.447 407.695 255.877 401.831 263.729 401.831C268.661 401.831 273.024 404.155 275.759 407.729C278.387 398.278 287.268 391.322 297.825 391.322C307.417 391.322 315.622 397.061 319.016 405.195C321.616 403.096 324.954 401.831 328.598 401.831C336.042 401.831 342.203 407.108 343.376 414.019C345.303 412.081 348.001 410.875 350.991 410.875C354.234 410.875 357.132 412.291 359.076 414.519C361.566 409.823 366.595 406.608 372.404 406.608C380.686 406.608 387.399 413.129 387.399 421.176H229.599C229.599 415.487 234.347 410.875 240.203 410.875Z" fill="white"/>
<path d="M143.182 374.261C142.099 375.197 141.01 376.144 139.915 377.102L140.919 378.582C142.009 377.625 143.096 376.682 144.176 375.748L143.182 374.261" fill="#606EC5"/>
<path d="M135.018 428.887C132.868 430.498 130.711 432.145 128.556 433.828L129.63 435.04C131.776 433.364 133.924 431.723 136.066 430.118L135.018 428.887ZM122.209 438.901C120.124 440.608 118.05 442.349 115.996 444.124L117.134 445.285C119.176 443.519 121.239 441.788 123.313 440.09L122.209 438.901ZM109.943 449.513C107.956 451.337 105.998 453.194 104.076 455.085L105.291 456.174C107.199 454.296 109.144 452.452 111.118 450.64L109.943 449.513ZM98.428 460.856C96.5823 462.819 94.7824 464.817 93.0363 466.846L94.3435 467.836C96.0725 465.826 97.8572 463.847 99.6872 461.9L98.428 460.856ZM87.9452 473.067C86.2982 475.189 84.7156 477.344 83.2071 479.534L84.6178 480.39C86.1079 478.227 87.673 476.094 89.3028 473.996L87.9452 473.067ZM78.8817 486.257C77.511 488.549 76.2261 490.876 75.0372 493.238L76.5562 493.911C77.7275 491.584 78.9946 489.29 80.3461 487.029L78.8817 486.257ZM71.7485 500.468C70.7524 502.919 69.864 505.407 69.0916 507.928L70.7066 508.363C71.465 505.887 72.3385 503.441 73.3181 501.031L71.7485 500.468ZM67.1402 515.583C66.6167 518.146 66.2177 520.743 65.9527 523.374L67.6245 523.524C67.8851 520.943 68.2768 518.395 68.79 515.879L67.1402 515.583ZM65.5957 531.255C65.6436 533.883 65.8693 536.52 66.2762 539.13L67.9381 538.902C67.5419 536.359 67.3213 533.79 67.2755 531.227L65.5957 531.255ZM68.0458 546.859C68.8241 549.403 69.7893 551.891 70.9448 554.289L72.4749 553.64C71.3541 551.314 70.4172 548.899 69.6606 546.424L68.0458 546.859ZM75.0214 561.228C76.5806 563.432 78.3371 565.51 80.2957 567.427L81.5082 566.336C79.6225 564.49 77.9269 562.486 76.421 560.356L75.0214 561.228ZM86.6795 572.626C89.0154 574.217 91.4314 575.573 93.9136 576.719L94.6551 575.303C92.2562 574.195 89.9235 572.888 87.6664 571.351L86.6795 572.626ZM101.763 579.626C104.445 580.4 107.183 580.985 109.964 581.417L110.238 579.861C107.524 579.44 104.859 578.87 102.255 578.119L101.763 579.626ZM118.312 582.278C120.428 582.398 122.559 582.45 124.703 582.45C125.363 582.45 126.024 582.445 126.685 582.436L126.659 580.859C126.006 580.869 125.354 580.873 124.703 580.873C122.589 580.873 120.49 580.821 118.413 580.705L118.312 582.278ZM135.034 582.102C137.801 581.931 140.576 581.709 143.346 581.465L143.188 579.894C140.428 580.139 137.67 580.359 134.924 580.53L135.034 582.102ZM151.629 580.687C154.404 580.421 157.164 580.159 159.898 579.932L159.749 578.362C157.003 578.59 154.234 578.852 151.459 579.119L151.629 580.687ZM168.163 579.366C170.555 579.246 172.918 579.177 175.243 579.177C175.636 579.177 176.029 579.18 176.421 579.183L176.439 577.607C176.041 577.604 175.643 577.6 175.243 577.6C172.881 577.6 170.489 577.671 168.074 577.791L168.163 579.366ZM184.67 579.554C187.42 579.748 190.165 580.006 192.903 580.325L193.109 578.761C190.344 578.438 187.573 578.177 184.796 577.98L184.67 579.554ZM201.085 581.466C203.803 581.908 206.509 582.409 209.203 582.969L209.566 581.43C206.846 580.864 204.115 580.358 201.372 579.913L201.085 581.466ZM217.239 584.826C219.9 585.502 222.547 586.237 225.174 587.028L225.688 585.527C223.036 584.728 220.365 583.987 217.678 583.304L217.239 584.826ZM232.995 589.57C235.582 590.472 238.147 591.43 240.687 592.442L241.344 590.992C238.781 589.97 236.192 589.002 233.582 588.091L232.995 589.57ZM248.231 595.641C250.72 596.761 253.181 597.934 255.612 599.159L256.406 597.77C253.954 596.534 251.47 595.349 248.957 594.219L248.231 595.641ZM262.815 602.99C265.185 604.319 267.522 605.698 269.821 607.128L270.748 605.813C268.427 604.371 266.069 602.977 263.677 601.635L262.815 602.99ZM276.614 611.568C278.843 613.097 281.032 614.677 283.177 616.302L284.232 615.076C282.067 613.434 279.856 611.841 277.607 610.295L276.614 611.568ZM289.49 621.327C291.551 623.05 293.566 624.819 295.532 626.634L296.709 625.509C294.724 623.676 292.688 621.89 290.607 620.149L289.49 621.327ZM301.285 632.213C303.153 634.119 304.969 636.068 306.729 638.059L308.021 637.053C306.244 635.04 304.409 633.071 302.521 631.146L301.285 632.213ZM311.841 644.16C313.487 646.234 315.074 648.348 316.599 650.503L317.999 649.629C316.455 647.452 314.851 645.314 313.188 643.218L311.841 644.16ZM320.985 657.076C322.381 659.3 323.713 661.561 324.978 663.861L326.472 663.138C325.192 660.812 323.844 658.525 322.433 656.275L320.985 657.076ZM328.559 670.842C329.678 673.193 330.73 675.58 331.711 678L333.28 677.44C332.289 674.99 331.225 672.577 330.093 670.199L328.559 670.842" fill="#606EC5"/>
<path d="M244.581 351.959C244.581 353.696 243.342 355.103 241.815 355.103C240.289 355.103 239.051 353.696 239.051 351.959C239.051 350.223 240.289 348.816 241.815 348.816C243.342 348.816 244.581 350.223 244.581 351.959Z" fill="white"/>
<path d="M300.707 497.783C300.707 499.518 299.47 500.927 297.942 500.927C296.415 500.927 295.178 499.518 295.178 497.783C295.178 496.046 296.415 494.639 297.942 494.639C299.47 494.639 300.707 496.046 300.707 497.783Z" fill="white"/>
<path d="M420 452.149C420 453.887 418.763 455.294 417.236 455.294C415.709 455.294 414.47 453.887 414.47 452.149C414.47 450.416 415.709 449.007 417.236 449.007C418.763 449.007 420 450.416 420 452.149Z" fill="white"/>
<path d="M343.791 71.1899C343.791 72.9254 342.554 74.334 341.027 74.334C339.501 74.334 338.262 72.9254 338.262 71.1899C338.262 69.4544 339.501 68.0477 341.027 68.0477C342.554 68.0477 343.791 69.4544 343.791 71.1899Z" fill="white"/>
<path d="M19.1574 183.918C19.1574 185.654 17.9198 187.06 16.3927 187.06C14.8656 187.06 13.6281 185.654 13.6281 183.918C13.6281 182.181 14.8656 180.774 16.3927 180.774C17.9198 180.774 19.1574 182.181 19.1574 183.918Z" fill="white"/>
<path d="M193.922 68.0475C193.922 69.783 192.683 71.1897 191.156 71.1897C189.63 71.1897 188.391 69.783 188.391 68.0475C188.391 66.3101 189.63 64.9034 191.156 64.9034C192.683 64.9034 193.922 66.3101 193.922 68.0475Z" fill="white"/>
<path d="M134.626 174.488C134.626 177.959 132.15 180.774 129.096 180.774C126.042 180.774 123.566 177.959 123.566 174.488C123.566 171.015 126.042 168.201 129.096 168.201C132.15 168.201 134.626 171.015 134.626 174.488Z" fill="white"/>
<path d="M254.528 22.5431C269.084 22.5431 274.356 16.55 274.356 6.71256e-05C274.356 16.55 279.627 22.5431 294.183 22.5431C279.627 22.5431 274.356 28.5342 274.356 45.0823C274.356 28.5342 269.084 22.5431 254.528 22.5431Z" fill="white"/>
<path d="M76.7874 60.1004C84.066 60.1004 86.7011 57.1038 86.7011 48.8298C86.7011 57.1038 89.3368 60.1004 96.6154 60.1004C89.3368 60.1004 86.7011 63.0969 86.7011 71.371C86.7011 63.0969 84.066 60.1004 76.7874 60.1004Z" fill="white"/>
<path d="M188.584 289.323C195.862 289.323 198.498 286.328 198.498 278.052C198.498 286.328 201.134 289.323 208.412 289.323C201.134 289.323 198.498 292.32 198.498 300.594C198.498 292.32 195.862 289.323 188.584 289.323Z" fill="white"/>
<path d="M333.683 308.877C340.963 308.877 343.599 305.88 343.599 297.606C343.599 305.88 346.235 308.877 353.513 308.877C346.235 308.877 343.599 311.873 343.599 320.148C343.599 311.873 340.963 308.877 333.683 308.877Z" fill="white"/>
<path d="M32.5137 364.759C47.0709 364.759 52.3422 358.766 52.3422 342.218C52.3422 358.766 57.6129 364.759 72.1707 364.759C57.6129 364.759 52.3422 370.75 52.3422 387.3C52.3422 370.75 47.0709 364.759 32.5137 364.759Z" fill="white"/>
<path d="M273.973 163.388C273.973 165.03 273.761 166.666 273.423 168.277C271.041 179.612 263.264 190.044 255.9 199.21C251.828 204.281 247.488 209.177 242.99 213.942C241.097 215.949 239.122 218.749 236.778 220.323C234.225 222.034 230.311 222.476 227.23 222.812C222.108 223.364 216.642 223.536 211.729 221.875C206.13 219.985 201.839 213.509 198.123 209.401C193.611 204.41 189.287 199.272 185.317 193.916C178.803 185.128 171.337 174.36 171.337 163.388C171.337 137.767 194.313 117 222.655 117C250.998 117 273.973 137.767 273.973 163.388" fill="#7E87C9"/>
<path d="M238.668 155.528C238.668 185.996 222.68 233.02 222.68 233.02C222.68 233.02 206.695 185.996 206.695 155.528C206.695 125.06 213.852 117 222.68 117C231.51 117 238.668 125.06 238.668 155.528" fill="#FDFCE6"/>
<path d="M188.668 155.528C188.668 185.996 222.562 233.02 222.562 233.02C222.562 233.02 177.403 185.996 177.403 155.528C177.403 125.06 205.897 117 214.727 117C206.791 119.087 188.668 125.06 188.668 155.528" fill="#FDFCE6"/>
<path d="M256.458 155.528C256.458 185.996 222.562 233.02 222.562 233.02C222.562 233.02 267.723 185.996 267.723 155.528C267.723 125.06 239.229 117 230.399 117C238.335 119.087 256.458 125.06 256.458 155.528" fill="#FDFCE6"/>
<path d="M237.373 228.032H207.988L202.082 213.688H243.279L237.373 228.032" fill="#3D4171"/>
<path d="M232.096 255.344H212.857L211.388 242.836H233.565L232.096 255.344" fill="#DABF58"/>
<path d="M232.831 244.054H212.122C210.499 244.054 209.184 242.863 209.184 241.396C209.184 239.929 210.499 238.74 212.122 238.74H232.831C234.454 238.74 235.769 239.929 235.769 241.396C235.769 242.863 234.454 244.054 232.831 244.054Z" fill="#F2D87B"/>
<path d="M232.096 258H212.857C212.045 258 211.388 257.406 211.388 256.672C211.388 255.938 212.045 255.344 212.857 255.344H232.096C232.908 255.344 233.565 255.938 233.565 256.672C233.565 257.406 232.908 258 232.096 258Z" fill="#F2D87B"/>
<path d="M208.351 228.116L211.588 238.646L212.251 238.479L209.014 227.95" fill="#272425"/>
<path d="M222.311 238.563H222.999V228.032H222.311V238.563Z" fill="#272425"/>
<path d="M215.132 228.077L216.843 238.608L217.525 238.516L215.814 227.987" fill="#272425"/>
<path d="M236.27 227.95L233.035 238.479L233.695 238.646L236.933 228.116" fill="#272425"/>
<path d="M229.472 227.987L227.761 238.516L228.441 238.608L230.152 228.077" fill="#272425"/>
<path d="M118.105 376.559L132.218 398.474L116.533 390.553L136.501 427.847L227.931 355.017L118.105 376.559" fill="#DBA740"/>
<path d="M227.931 355.017L116.533 390.553L95.6835 435.395L227.931 355.017Z" fill="#F4D387"/>
<path d="M118.105 376.559L130.977 347.81L227.931 355.017L118.105 376.559Z" fill="#F4D387"/>
</svg>
